<svg width="29" height="33" viewBox="0 0 29 33" fill="none" xmlns="http://www.w3.org/2000/svg">
<path d="M11.4678 22.3475C11.3687 20.9602 10.8611 19.8845 10.0856 19.1999C10.0856 20.1819 9.63872 21.1649 8.74391 21.915C7.59329 20.9491 7.1838 19.5982 7.51443 18.3581C6.88048 18.3954 6.20305 18.5749 5.50439 18.9136C5.74503 22.293 8.41227 23.8285 11.4678 22.3475Z" fill="#00274D"/>
<path d="M14.3301 0L0 8.25V24.75L14.3301 33L28.6602 24.75V8.25L14.3301 0ZM17.1925 22.3485C17.2905 20.9723 17.791 19.9016 18.5564 19.2171C18.5615 20.194 19.0084 21.1699 19.8971 21.917C21.0487 20.9511 21.4572 19.6002 21.1266 18.3591C21.7656 18.3944 22.4501 18.5728 23.1558 18.9156C22.9152 22.2941 20.248 23.8295 17.1925 22.3485ZM14.3291 16.5V31.5593L1.24768 24.0281V8.96985L14.3291 16.5V1.43768L27.4115 8.96884L14.3291 16.5Z" fill="#00274D"/>
</svg>
